<svg xmlns="http://www.w3.org/2000/svg" width="340" height="200" viewBox="0 0 340 200"><style>* {
          font-family: 'Segoe UI', Ubuntu, "Helvetica Neue", Sans-Serif
        }</style><rect x="1" y="1" rx="5" ry="5" height="99%" width="99.41176470588235%" stroke="#1a1b27" stroke-width="1" fill="#1a1b27" stroke-opacity="1"></rect><text x="30" y="40" style="font-size: 22px; fill: #70a5fd;">Top Languages by Commit</text><g transform="translate(0,40)"><g transform="translate(40,0)"><rect y="18" width="14" height="14" fill="#e34c26" stroke="#1a1b27" style="stroke-width: 1px;"></rect><rect y="43.2" width="14" height="14" fill="#f1e05a" stroke="#1a1b27" style="stroke-width: 1px;"></rect><rect y="68.4" width="14" height="14" fill="#b07219" stroke="#1a1b27" style="stroke-width: 1px;"></rect><rect y="93.60000000000002" width="14" height="14" fill="#DA5B0B" stroke="#1a1b27" style="stroke-width: 1px;"></rect><rect y="118.80000000000001" width="14" height="14" fill="#012456" stroke="#1a1b27" style="stroke-width: 1px;"></rect><text x="16.8" y="30" style="fill: #38bdae; font-size: 14px;">HTML</text><text x="16.8" y="55.2" style="fill: #38bdae; font-size: 14px;">JavaScript</text><text x="16.8" y="80.4" style="fill: #38bdae; font-size: 14px;">Java</text><text x="16.8" y="105.60000000000002" style="fill: #38bdae; font-size: 14px;">Jupyter Notebook</text><text x="16.8" y="130.8" style="fill: #38bdae; font-size: 14px;">PowerShell</text></g><g transform="translate( 230, 80 )"><g class="arc"><path d="M3.67394039744206e-15,-60A60,60,0,0,1,15.881706834743609,57.859929035691515L9.264328986933771,33.75162527082005A35,35,0,0,0,2.1431318985078682e-15,-35Z" style="fill: #e34c26; stroke-width: 2px;" stroke="#1a1b27"></path></g><g class="arc"><path d="M15.881706834743609,57.859929035691515A60,60,0,0,1,-59.640058514396756,-6.56227250267246L-34.79003413339811,-3.827992293225602A35,35,0,0,0,9.264328986933771,33.75162527082005Z" style="fill: #f1e05a; stroke-width: 2px;" stroke="#1a1b27"></path></g><g class="arc"><path d="M-59.640058514396756,-6.56227250267246A60,60,0,0,1,-33.106064446226775,-50.039869073392666L-19.311870926965618,-29.189923626145724A35,35,0,0,0,-34.79003413339811,-3.827992293225602Z" style="fill: #b07219; stroke-width: 2px;" stroke="#1a1b27"></path></g><g class="arc"><path d="M-33.106064446226775,-50.039869073392666A60,60,0,0,1,-8.736070064100293,-59.36060208450662L-5.0960408707251705,-34.627017882628856A35,35,0,0,0,-19.311870926965618,-29.189923626145724Z" style="fill: #DA5B0B; stroke-width: 2px;" stroke="#1a1b27"></path></g><g class="arc"><path d="M-8.736070064100293,-59.36060208450662A60,60,0,0,1,-1.1021821192326178e-14,-60L-6.429395695523604e-15,-35A35,35,0,0,0,-5.0960408707251705,-34.627017882628856Z" style="fill: #012456; stroke-width: 2px;" stroke="#1a1b27"></path></g></g></g></svg>