<svg xmlns="http://www.w3.org/2000/svg" width="340" height="200" viewBox="0 0 340 200"><style>* {
          font-family: 'Segoe UI', Ubuntu, "Helvetica Neue", Sans-Serif
        }</style><rect x="1" y="1" rx="5" ry="5" height="99%" width="99.41176470588235%" stroke="#1a1b27" stroke-width="1" fill="#1a1b27" stroke-opacity="1"></rect><text x="30" y="40" style="font-size: 22px; fill: #70a5fd;">Top Languages by Commit</text><g transform="translate(0,40)"><g transform="translate(40,0)"><rect y="18" width="14" height="14" fill="#e34c26" stroke="#1a1b27" style="stroke-width: 1px;"></rect><rect y="43.2" width="14" height="14" fill="#f1e05a" stroke="#1a1b27" style="stroke-width: 1px;"></rect><rect y="68.4" width="14" height="14" fill="#b07219" stroke="#1a1b27" style="stroke-width: 1px;"></rect><rect y="93.60000000000002" width="14" height="14" fill="#DA5B0B" stroke="#1a1b27" style="stroke-width: 1px;"></rect><rect y="118.80000000000001" width="14" height="14" fill="#663399" stroke="#1a1b27" style="stroke-width: 1px;"></rect><text x="16.8" y="30" style="fill: #38bdae; font-size: 14px;">HTML</text><text x="16.8" y="55.2" style="fill: #38bdae; font-size: 14px;">JavaScript</text><text x="16.8" y="80.4" style="fill: #38bdae; font-size: 14px;">Java</text><text x="16.8" y="105.60000000000002" style="fill: #38bdae; font-size: 14px;">Jupyter Notebook</text><text x="16.8" y="130.8" style="fill: #38bdae; font-size: 14px;">CSS</text></g><g transform="translate( 230, 80 )"><g class="arc"><path d="M3.67394039744206e-15,-60A60,60,0,0,1,18.404119202579135,57.107691219110386L10.735736201504496,33.31281987781439A35,35,0,0,0,2.1431318985078682e-15,-35Z" style="fill: #e34c26; stroke-width: 2px;" stroke="#1a1b27"></path></g><g class="arc"><path d="M18.404119202579135,57.107691219110386A60,60,0,0,1,-59.47883641098405,-7.891008756515117L-34.69598790640736,-4.603088441300485A35,35,0,0,0,10.735736201504496,33.31281987781439Z" style="fill: #f1e05a; stroke-width: 2px;" stroke="#1a1b27"></path></g><g class="arc"><path d="M-59.47883641098405,-7.891008756515117A60,60,0,0,1,-32.65822680953025,-50.33329138509899L-19.05063230555931,-29.361086641307743A35,35,0,0,0,-34.69598790640736,-4.603088441300485Z" style="fill: #b07219; stroke-width: 2px;" stroke="#1a1b27"></path></g><g class="arc"><path d="M-32.65822680953025,-50.33329138509899A60,60,0,0,1,-8.603623914807093,-59.37994320923993L-5.018780616970805,-34.63830020538996A35,35,0,0,0,-19.05063230555931,-29.361086641307743Z" style="fill: #DA5B0B; stroke-width: 2px;" stroke="#1a1b27"></path></g><g class="arc"><path d="M-8.603623914807093,-59.37994320923993A60,60,0,0,1,-6.431252637433369e-14,-60L-3.7515640385027985e-14,-35A35,35,0,0,0,-5.018780616970805,-34.63830020538996Z" style="fill: #663399; stroke-width: 2px;" stroke="#1a1b27"></path></g></g></g></svg>