<svg xmlns="http://www.w3.org/2000/svg" width="340" height="200" viewBox="0 0 340 200"><style>* {
          font-family: 'Segoe UI', Ubuntu, "Helvetica Neue", Sans-Serif
        }</style><rect x="1" y="1" rx="5" ry="5" height="99%" width="99.41176470588235%" stroke="#1a1b27" stroke-width="1" fill="#1a1b27" stroke-opacity="1"></rect><text x="30" y="40" style="font-size: 22px; fill: #70a5fd;">Top Languages by Commit</text><g transform="translate(0,40)"><g transform="translate(40,0)"><rect y="18" width="14" height="14" fill="#e34c26" stroke="#1a1b27" style="stroke-width: 1px;"></rect><rect y="43.2" width="14" height="14" fill="#f1e05a" stroke="#1a1b27" style="stroke-width: 1px;"></rect><rect y="68.4" width="14" height="14" fill="#b07219" stroke="#1a1b27" style="stroke-width: 1px;"></rect><rect y="93.60000000000002" width="14" height="14" fill="#DA5B0B" stroke="#1a1b27" style="stroke-width: 1px;"></rect><rect y="118.80000000000001" width="14" height="14" fill="#336790" stroke="#1a1b27" style="stroke-width: 1px;"></rect><text x="16.8" y="30" style="fill: #38bdae; font-size: 14px;">HTML</text><text x="16.8" y="55.2" style="fill: #38bdae; font-size: 14px;">JavaScript</text><text x="16.8" y="80.4" style="fill: #38bdae; font-size: 14px;">Java</text><text x="16.8" y="105.60000000000002" style="fill: #38bdae; font-size: 14px;">Jupyter Notebook</text><text x="16.8" y="130.8" style="fill: #38bdae; font-size: 14px;">PLpgSQL</text></g><g transform="translate( 230, 80 )"><g class="arc"><path d="M3.67394039744206e-15,-60A60,60,0,0,1,16.4872662450615,57.690294259645235L9.617571976285875,33.65267165145972A35,35,0,0,0,2.1431318985078682e-15,-35Z" style="fill: #e34c26; stroke-width: 2px;" stroke="#1a1b27"></path></g><g class="arc"><path d="M16.4872662450615,57.690294259645235A60,60,0,0,1,-56.60479798332808,19.897156713124037L-33.01946549027471,11.606674749322355A35,35,0,0,0,9.617571976285875,33.65267165145972Z" style="fill: #f1e05a; stroke-width: 2px;" stroke="#1a1b27"></path></g><g class="arc"><path d="M-56.60479798332808,19.897156713124037A60,60,0,0,1,-31.70517470715714,-50.93900172548186L-18.494685245841666,-29.71441767319775A35,35,0,0,0,-33.01946549027471,11.606674749322355Z" style="fill: #b07219; stroke-width: 2px;" stroke="#1a1b27"></path></g><g class="arc"><path d="M-31.70517470715714,-50.93900172548186A60,60,0,0,1,-14.180666311974248,-58.30016040242461L-8.272055348651644,-34.00842690141435A35,35,0,0,0,-18.494685245841666,-29.71441767319775Z" style="fill: #DA5B0B; stroke-width: 2px;" stroke="#1a1b27"></path></g><g class="arc"><path d="M-14.180666311974248,-58.30016040242461A60,60,0,0,1,4.226888398968133e-14,-60L2.4656848993980778e-14,-35A35,35,0,0,0,-8.272055348651644,-34.00842690141435Z" style="fill: #336790; stroke-width: 2px;" stroke="#1a1b27"></path></g></g></g></svg>