<svg xmlns="http://www.w3.org/2000/svg" width="340" height="200" viewBox="0 0 340 200"><style>* {
          font-family: 'Segoe UI', Ubuntu, "Helvetica Neue", Sans-Serif
        }</style><rect x="1" y="1" rx="5" ry="5" height="99%" width="99.41176470588235%" stroke="#1a1b27" stroke-width="1" fill="#1a1b27" stroke-opacity="1"></rect><text x="30" y="40" style="font-size: 22px; fill: #70a5fd;">Top Languages by Commit</text><g transform="translate(0,40)"><g transform="translate(40,0)"><rect y="18" width="14" height="14" fill="#e34c26" stroke="#1a1b27" style="stroke-width: 1px;"></rect><rect y="43.2" width="14" height="14" fill="#f1e05a" stroke="#1a1b27" style="stroke-width: 1px;"></rect><rect y="68.4" width="14" height="14" fill="#b07219" stroke="#1a1b27" style="stroke-width: 1px;"></rect><rect y="93.60000000000002" width="14" height="14" fill="#DA5B0B" stroke="#1a1b27" style="stroke-width: 1px;"></rect><rect y="118.80000000000001" width="14" height="14" fill="#663399" stroke="#1a1b27" style="stroke-width: 1px;"></rect><text x="16.8" y="30" style="fill: #38bdae; font-size: 14px;">HTML</text><text x="16.8" y="55.2" style="fill: #38bdae; font-size: 14px;">JavaScript</text><text x="16.8" y="80.4" style="fill: #38bdae; font-size: 14px;">Java</text><text x="16.8" y="105.60000000000002" style="fill: #38bdae; font-size: 14px;">Jupyter Notebook</text><text x="16.8" y="130.8" style="fill: #38bdae; font-size: 14px;">CSS</text></g><g transform="translate( 230, 80 )"><g class="arc"><path d="M3.67394039744206e-15,-60A60,60,0,0,1,14.145536130565636,58.3086940994125L8.251562742829956,34.01340489132396A35,35,0,0,0,2.1431318985078682e-15,-35Z" style="fill: #e34c26; stroke-width: 2px;" stroke="#1a1b27"></path></g><g class="arc"><path d="M14.145536130565636,58.3086940994125A60,60,0,0,1,-58.915721835762405,-11.355074661624617L-34.36750440419473,-6.62379355261436A35,35,0,0,0,8.251562742829956,34.01340489132396Z" style="fill: #f1e05a; stroke-width: 2px;" stroke="#1a1b27"></path></g><g class="arc"><path d="M-58.915721835762405,-11.355074661624617A60,60,0,0,1,-29.999999999999975,-51.96152422706633L-17.499999999999986,-30.310889132455358A35,35,0,0,0,-34.36750440419473,-6.62379355261436Z" style="fill: #b07219; stroke-width: 2px;" stroke="#1a1b27"></path></g><g class="arc"><path d="M-29.999999999999975,-51.96152422706633A60,60,0,0,1,-8.538890296397062,-59.38928651285597L-4.981019339564953,-34.643750465832646A35,35,0,0,0,-17.499999999999986,-30.310889132455358Z" style="fill: #DA5B0B; stroke-width: 2px;" stroke="#1a1b27"></path></g><g class="arc"><path d="M-8.538890296397062,-59.38928651285597A60,60,0,0,1,4.226888398968133e-14,-60L2.4656848993980778e-14,-35A35,35,0,0,0,-4.981019339564953,-34.643750465832646Z" style="fill: #663399; stroke-width: 2px;" stroke="#1a1b27"></path></g></g></g></svg>