<svg xmlns="http://www.w3.org/2000/svg" width="340" height="200" viewBox="0 0 340 200"><style>* {
          font-family: 'Segoe UI', Ubuntu, "Helvetica Neue", Sans-Serif
        }</style><rect x="1" y="1" rx="5" ry="5" height="99%" width="99.41176470588235%" stroke="#1a1b27" stroke-width="1" fill="#1a1b27" stroke-opacity="1"></rect><text x="30" y="40" style="font-size: 22px; fill: #70a5fd;">Top Languages by Commit</text><g transform="translate(0,40)"><g transform="translate(40,0)"><rect y="18" width="14" height="14" fill="#e34c26" stroke="#1a1b27" style="stroke-width: 1px;"></rect><rect y="43.2" width="14" height="14" fill="#f1e05a" stroke="#1a1b27" style="stroke-width: 1px;"></rect><rect y="68.4" width="14" height="14" fill="#b07219" stroke="#1a1b27" style="stroke-width: 1px;"></rect><rect y="93.60000000000002" width="14" height="14" fill="#DA5B0B" stroke="#1a1b27" style="stroke-width: 1px;"></rect><rect y="118.80000000000001" width="14" height="14" fill="#336790" stroke="#1a1b27" style="stroke-width: 1px;"></rect><text x="16.8" y="30" style="fill: #38bdae; font-size: 14px;">HTML</text><text x="16.8" y="55.2" style="fill: #38bdae; font-size: 14px;">JavaScript</text><text x="16.8" y="80.4" style="fill: #38bdae; font-size: 14px;">Java</text><text x="16.8" y="105.60000000000002" style="fill: #38bdae; font-size: 14px;">Jupyter Notebook</text><text x="16.8" y="130.8" style="fill: #38bdae; font-size: 14px;">PLpgSQL</text></g><g transform="translate( 230, 80 )"><g class="arc"><path d="M3.67394039744206e-15,-60A60,60,0,0,1,40.47390239918763,44.292925220412286L23.609776399526115,25.837539711907166A35,35,0,0,0,2.1431318985078682e-15,-35Z" style="fill: #e34c26; stroke-width: 2px;" stroke="#1a1b27"></path></g><g class="arc"><path d="M40.47390239918763,44.292925220412286A60,60,0,0,1,-56.35870950505136,20.583873856133927L-32.87591387794662,12.007259749411457A35,35,0,0,0,23.609776399526115,25.837539711907166Z" style="fill: #f1e05a; stroke-width: 2px;" stroke="#1a1b27"></path></g><g class="arc"><path d="M-56.35870950505136,20.583873856133927A60,60,0,0,1,-31.885609856541233,-50.826251918437194L-18.599939082982385,-29.648646952421696A35,35,0,0,0,-32.87591387794662,12.007259749411457Z" style="fill: #b07219; stroke-width: 2px;" stroke="#1a1b27"></path></g><g class="arc"><path d="M-31.885609856541233,-50.826251918437194A60,60,0,0,1,-14.269252024760167,-58.278541905695256L-8.323730347776763,-33.995816111655564A35,35,0,0,0,-18.599939082982385,-29.648646952421696Z" style="fill: #DA5B0B; stroke-width: 2px;" stroke="#1a1b27"></path></g><g class="arc"><path d="M-14.269252024760167,-58.278541905695256A60,60,0,0,1,-1.1021821192326178e-14,-60L-6.429395695523604e-15,-35A35,35,0,0,0,-8.323730347776763,-33.995816111655564Z" style="fill: #336790; stroke-width: 2px;" stroke="#1a1b27"></path></g></g></g></svg>